<svg xmlns="http://www.w3.org/2000/svg" viewBox="0 0 226.52 197.34"><defs><style>.cls-1{fill:#303030;}</style></defs><g id="Layer_1" data-name="Layer 1"><path class="cls-1" d="M125.4,26c-.45,2.56-2.84,4.17-6.06,3.89s-5.65-2.5-5.32-6.36a5.5,5.5,0,0,1,6.34-5.34c3.22.28,5.35,2.41,5.3,4.88l-2.6-.23c-.25-1.27-1.06-1.94-2.92-2.1a3,3,0,0,0-3.62,3,3,3,0,0,0,3,3.59c1.92.17,2.81-.45,3.23-1.56Z"/><path class="cls-1" d="M136.66,33.47l-2.51-.67-.18-2-5.71-1.5L127.12,31l-2.52-.67,6.94-10.11,4.07,1.07Zm-2.9-5.11L133.3,23l-.61-.16-3.05,4.44Z"/><path class="cls-1" d="M152.42,28.14l-1,2.14L141.84,33l-.13.26,6.74,3.2-1,2.07L137.79,34h0l-.49-.23,1-2.14L148,28.83l.11-.22-6.79-3.22,1-2.08Z"/><path class="cls-1" d="M162.78,44.74l2,1.7c-1.85,1.81-4.74,1.73-7.19-.38s-3.14-5.34-.61-8.28a5.5,5.5,0,0,1,8.27-.64c2.45,2.11,2.94,5.09,1.46,7.06l-2-1.7c.54-1.18.27-2.19-1.15-3.41a3,3,0,0,0-4.7.33,3,3,0,0,0,.38,4.7c1.47,1.26,2.56,1.27,3.54.62Z"/><path class="cls-1" d="M174.42,55.79c-3,2.39-6.19,1.69-8.31-.92s-2.17-5.88.84-8.31,6.18-1.7,8.3.91S177.37,53.4,174.42,55.79Zm-1.55-1.92c1.75-1.42,1.65-3.22.39-4.78s-3-2.06-4.76-.62-1.65,3.23-.39,4.78S171.14,55.27,172.87,53.87Z"/><path class="cls-1" d="M178.61,67.93c-2.52,1.38-4.07,0-5.7-2.91-2.74-5,0-6.51,1-7l1.24,2.26c-1.53.84-1,2.32-.3,3.64.91,1.66,1.68,2.14,2.46,1.71s.43-1.14-.37-3.28c-1.22-3.27-1.34-5,.52-6,1.43-.79,3.66-.64,5.48,2.67,2.16,3.93.39,5.93-1.15,6.77,0,0-.85-1.53-1.27-2.31.7-.38,1.57-1.27.42-3.36-.94-1.71-1.77-1.76-2.26-1.49s-.41,1,.25,2.85C179.81,63.9,180.9,66.67,178.61,67.93Z"/><path class="cls-1" d="M186.45,66l3.72,10.62-2.17.76-1.44-4.12-8.75,3.06L177,73.93l8.75-3.06-1.44-4.13Z"/><path class="cls-1" d="M181.12,90.53l-.5-2.56,1.74-1-1.14-5.8-2-.3-.5-2.56,12.13,1.84.81,4.13Zm3.33-4.84,4.63-2.76-.12-.62-5.33-.8Z"/><path class="cls-1" d="M185.09,106.55l-.21,2.61c-2.55-.44-4.19-2.82-3.93-6s2.47-5.68,6.33-5.36a5.5,5.5,0,0,1,5.39,6.31c-.26,3.21-2.38,5.37-4.85,5.33l.21-2.6c1.27-.26,1.93-1.08,2.08-2.94a3.31,3.31,0,1,0-6.6-.53c-.16,1.93.47,2.81,1.58,3.22Z"/><path class="cls-1" d="M177.51,120.48l.65-2.53,2-.18,1.47-5.73L180,110.91l.65-2.53,10.17,6.89-1.05,4.08Zm5.09-2.94,5.36-.49.16-.62-4.46-3Z"/><path class="cls-1" d="M183,136.17l-2.15-1L178,125.63l-.27-.13-3.15,6.76-2.08-1,4.52-9.7h0l.23-.49,2.14,1,2.85,9.62.22.11,3.18-6.81,2.08,1Z"/><path class="cls-1" d="M166.44,146.63l-1.68,2c-1.83-1.84-1.76-4.73.32-7.19s5.31-3.17,8.26-.67a5.5,5.5,0,0,1,.71,8.26c-2.09,2.46-5.06,3-7,1.5l1.68-2c1.18.53,2.19.25,3.4-1.18a3.31,3.31,0,1,0-5.05-4.28c-1.25,1.48-1.26,2.57-.6,3.55Z"/><path class="cls-1" d="M155.45,158.36c-2.42-2.94-1.74-6.17.86-8.31s5.86-2.21,8.32.78,1.74,6.18-.87,8.31S157.86,161.3,155.45,158.36Zm1.9-1.56c1.43,1.75,3.24,1.63,4.79.36s2-3,.58-4.77-3.23-1.62-4.78-.35S155.94,155.08,157.35,156.8Z"/><path class="cls-1" d="M143.34,162.64c-1.4-2.51-.09-4.07,2.86-5.72,5-2.78,6.52,0,7.06,1L151,159.13c-.85-1.52-2.33-1-3.64-.28-1.65.93-2.13,1.7-1.69,2.48s1.14.42,3.28-.4c3.26-1.24,5-1.37,6,.48.8,1.42.66,3.65-2.63,5.5-3.92,2.19-5.93.43-6.79-1.11l2.31-1.28c.39.7,1.28,1.56,3.37.4,1.7-.95,1.74-1.78,1.47-2.27s-1-.4-2.85.27C147.37,163.81,144.62,164.92,143.34,162.64Z"/><path class="cls-1" d="M145.34,170.47l-10.6,3.78-.77-2.16,4.11-1.47L135,161.89l2.37-.84,3.12,8.72,4.11-1.47Z"/><path class="cls-1" d="M120.76,165.29l2.56-.52,1,1.74,5.8-1.18.29-2,2.55-.52L131.24,175l-4.13.83Zm4.87,3.3,2.78,4.61.62-.12.78-5.34Z"/><path class="cls-1" d="M104.76,169.38l-2.6-.19c.41-2.55,2.79-4.2,6-4s5.69,2.43,5.41,6.29a5.5,5.5,0,0,1-6.27,5.43c-3.21-.24-5.38-2.34-5.36-4.81l2.6.2c.27,1.26,1.09,1.92,2.95,2a3,3,0,0,0,3.58-3c.17-2.3-1.12-3.4-3.1-3.55s-2.81.49-3.21,1.61Z"/><path class="cls-1" d="M90.8,161.9l2.53.63.2,2L99.26,166l1.12-1.68,2.53.63-6.8,10.2-4.09-1Zm3,5.07.54,5.35.61.16,3-4.49Z"/><path class="cls-1" d="M75.11,167.44l1-2.16,9.53-2.89.12-.26L79,159l1-2.09,9.74,4.47h0l.49.22-1,2.16-9.61,2.91-.1.22,6.83,3.14-1,2.08Z"/><path class="cls-1" d="M64.56,151l-2-1.67c1.83-1.84,4.72-1.79,7.2.27s3.2,5.29.72,8.26a5.48,5.48,0,0,1-8.25.76c-2.48-2.07-3-5-1.56-7l2,1.67c-.52,1.19-.23,2.2,1.2,3.39a3.31,3.31,0,1,0,4.24-5.08c-1.48-1.24-2.57-1.24-3.54-.57Z"/><path class="cls-1" d="M52.76,140.1c2.93-2.43,6.17-1.78,8.32.81s2.25,5.85-.72,8.33S54.19,151,52,148.43,49.84,142.53,52.76,140.1Zm1.58,1.9c-1.74,1.44-1.61,3.25-.33,4.79s3,2,4.77.55,1.61-3.25.33-4.79S56.05,140.57,54.34,142Z"/><path class="cls-1" d="M48.4,128c2.5-1.42,4.07-.11,5.74,2.83,2.82,4.95.07,6.51-.9,7.06L52,135.68c1.52-.86,1-2.33.26-3.64-.94-1.65-1.71-2.12-2.49-1.68s-.42,1.14.41,3.28c1.27,3.25,1.41,5-.43,6-1.42.8-3.65.68-5.52-2.6-2.22-3.9-.47-5.92,1.06-6.79l1.3,2.29c-.7.4-1.56,1.3-.37,3.38,1,1.69,1.79,1.73,2.27,1.45s.4-1-.28-2.84C47.25,132.07,46.13,129.32,48.4,128Z"/><path class="cls-1" d="M40.58,130.06l-3.86-10.57,2.15-.78,1.5,4.1,8.71-3.18.86,2.37-8.71,3.17,1.5,4.11Z"/><path class="cls-1" d="M45.57,105.45l.54,2.55-1.73,1.06,1.22,5.78,2,.27.53,2.55L36,116l-.87-4.12Zm-3.26,4.89-4.59,2.82.13.62,5.34.73Z"/><path class="cls-1" d="M41.38,89.5l.18-2.61c2.56.4,4.22,2.76,4,6s-2.39,5.71-6.26,5.45a5.49,5.49,0,0,1-5.47-6.23c.21-3.22,2.3-5.4,4.77-5.4l-.17,2.6c-1.27.28-1.92,1.11-2,3a3,3,0,0,0,3.08,3.56A3,3,0,0,0,43,92.7c.13-1.93-.51-2.81-1.63-3.2Z"/><path class="cls-1" d="M48.77,75.47,48.16,78l-2,.21L44.76,84l1.69,1.11-.61,2.54L35.58,80.87l1-4.09Zm-5,3-5.36.57-.15.62,4.5,3Z"/><path class="cls-1" d="M43.1,59.85l2.16,1,3,9.5.26.12,3.06-6.8,2.09.94-4.38,9.77h0l-.22.5-2.16-1-3-9.58-.23-.11-3.08,6.86-2.09-.94Z"/><path class="cls-1" d="M59.49,49.15l1.66-2C63,49,63,51.84,60.92,54.33s-5.27,3.24-8.25.78a5.49,5.49,0,0,1-.81-8.25c2-2.49,5-3,7-1.6l-1.65,2c-1.19-.51-2.2-.22-3.38,1.22a3.31,3.31,0,1,0,5.1,4.21c1.23-1.49,1.23-2.58.55-3.55Z"/><path class="cls-1" d="M70.31,37.28c2.45,2.91,1.82,6.15-.75,8.32s-5.83,2.3-8.33-.67-1.82-6.15.75-8.32S67.86,34.37,70.31,37.28Zm-1.88,1.59c-1.46-1.73-3.26-1.59-4.79-.3s-2,3-.52,4.78,3.25,1.58,4.79.29S69.86,40.57,68.43,38.87Z"/><path class="cls-1" d="M82.35,32.83c1.44,2.49.15,4.07-2.78,5.77-4.94,2.85-6.52.11-7.08-.86l2.24-1.29c.87,1.52,2.34,1,3.64.23,1.65-1,2.11-1.73,1.66-2.5s-1.14-.41-3.27.44c-3.25,1.29-5,1.44-6-.39-.81-1.41-.71-3.65,2.56-5.54,3.89-2.25,5.92-.52,6.8,1L77.82,31c-.4-.7-1.31-1.55-3.38-.36-1.69,1-1.72,1.81-1.44,2.29s1,.39,2.84-.3C78.3,31.71,81,30.57,82.35,32.83Z"/><path class="cls-1" d="M80.25,25,90.78,21.1l.81,2.15L87.5,24.78l3.24,8.68-2.35.88-3.25-8.68-4.09,1.53Z"/><path class="cls-1" d="M104.9,29.87l-2.54.55-1.08-1.72L95.51,30l-.26,2-2.55.55,1.59-12.16,4.12-.89ZM100,26.64l-2.86-4.58-.61.14-.7,5.34Z"/></g></svg>