<?xml version="1.0" standalone="no"?>
<!DOCTYPE svg PUBLIC "-//W3C//DTD SVG 20010904//EN"
 "http://www.w3.org/TR/2001/REC-SVG-20010904/DTD/svg10.dtd">
<svg version="1.0" xmlns="http://www.w3.org/2000/svg"
 width="908.000000pt" height="908.000000pt" viewBox="0 0 908.000000 908.000000"
 preserveAspectRatio="xMidYMid meet">
<metadata>
Created by potrace 1.11, written by Peter Selinger 2001-2013
</metadata>
<g transform="translate(0.000000,908.000000) scale(0.100000,-0.100000)"
fill="#000000" stroke="none">
<path d="M4747 7760 c-54 -10 -118 -58 -147 -110 -34 -63 -38 -175 -8 -234 40
-78 124 -126 221 -126 87 0 177 54 205 122 14 33 6 39 -54 42 -35 2 -48 -2
-55 -16 -13 -25 -46 -40 -93 -43 -56 -3 -92 12 -122 51 -45 59 -26 160 37 196
53 31 189 4 189 -37 0 -21 23 -33 70 -36 51 -4 55 4 33 61 -31 78 -97 118
-223 135 -8 1 -32 -1 -53 -5z"/>
<path d="M3860 7693 c-36 -8 -69 -19 -74 -24 -9 -8 -12 -23 -20 -104 -3 -22
-5 -40 -6 -40 -1 0 -6 -31 -15 -111 -3 -29 -8 -62 -10 -75 -3 -13 -7 -52 -11
-87 l-6 -64 44 7 c23 4 46 10 50 14 6 5 13 35 17 73 1 4 27 12 59 19 31 7 62
14 67 15 6 2 24 6 40 9 17 3 37 8 46 11 10 3 25 -8 40 -31 20 -30 28 -34 49
-29 14 3 33 8 44 10 10 2 21 5 23 8 3 3 -24 50 -58 105 -35 56 -71 113 -79
128 -8 16 -18 30 -22 31 -5 2 -8 10 -8 18 0 8 -4 14 -10 14 -5 0 -10 4 -10 9
0 16 -65 111 -75 110 -5 0 -39 -8 -75 -16z m80 -163 c23 -39 46 -73 51 -76 18
-11 8 -33 -18 -38 -16 -4 -37 -8 -48 -11 -11 -2 -35 -7 -54 -11 -33 -7 -33 -6
-27 22 5 25 20 131 25 177 1 4 7 7 15 7 7 0 33 -32 56 -70z"/>
<path d="M5218 7603 c-29 -43 -66 -98 -83 -123 -16 -25 -32 -47 -35 -50 -13
-12 -102 -151 -99 -154 8 -6 72 -26 85 -26 7 0 21 14 31 31 19 32 16 32 108
14 24 -5 139 -38 143 -41 2 -1 4 -19 6 -40 2 -35 5 -38 46 -50 25 -8 48 -14
52 -14 3 0 4 21 2 48 -2 26 -6 76 -9 112 -6 71 -10 116 -20 230 -4 41 -7 80
-8 87 0 10 -44 25 -110 38 -10 3 -27 7 -37 10 -15 5 -30 -10 -72 -72z m123
-40 c0 -5 2 -17 4 -28 2 -11 6 -58 9 -104 5 -73 4 -82 -9 -71 -8 7 -15 10 -15
7 0 -8 -118 27 -120 36 -2 14 105 167 118 167 6 0 12 -3 13 -7z"/>
<path d="M3535 7608 c-44 -16 -89 -33 -100 -38 -11 -5 -62 -24 -114 -42 -51
-18 -95 -38 -98 -44 -2 -7 3 -28 11 -48 l15 -36 53 21 c29 12 58 22 63 23 6 1
16 5 23 9 6 5 16 6 21 3 4 -3 34 -76 66 -163 32 -87 62 -162 66 -167 13 -15
89 14 89 33 -1 9 -27 86 -59 171 -39 103 -56 159 -49 167 5 6 34 19 64 29 83
26 88 32 69 77 -8 20 -21 37 -28 36 -6 -1 -48 -14 -92 -31z"/>
<path d="M5687 7519 c-18 -42 -21 -60 -9 -57 10 2 252 -114 252 -122 0 -4 -86
-31 -191 -60 l-191 -54 -19 -38 c-10 -20 -19 -41 -19 -46 0 -5 66 -40 148 -78
81 -38 170 -80 199 -95 l51 -25 21 39 c12 21 21 41 21 43 0 2 -58 32 -130 66
-71 34 -130 65 -130 69 0 8 100 39 132 42 10 1 18 5 18 9 0 4 3 7 8 6 4 -1 55
11 114 27 105 30 107 30 127 72 23 47 22 48 -49 80 -90 42 -266 126 -300 143
l-36 18 -17 -39z"/>
<path d="M3050 7382 c-25 -3 -47 -11 -105 -39 -68 -33 -125 -104 -125 -156 0
-33 21 -88 41 -104 36 -29 131 -19 232 26 68 29 93 32 111 12 23 -25 1 -60
-64 -98 -62 -38 -97 -41 -129 -13 -23 19 -23 19 -62 -7 -21 -14 -39 -29 -39
-33 0 -4 13 -21 29 -38 41 -42 98 -50 173 -24 68 24 168 91 193 129 39 59 7
161 -59 183 -41 13 -89 6 -185 -30 -91 -33 -128 -35 -137 -8 -7 22 14 49 61
78 52 32 104 31 126 -2 6 -10 83 24 93 40 3 5 -7 23 -22 39 -28 31 -87 51
-132 45z"/>
<path d="M2564 7069 c-60 -23 -129 -87 -154 -142 -36 -80 -11 -184 62 -256 81
-80 166 -93 264 -42 67 34 133 112 137 161 1 11 5 20 9 20 4 0 5 6 3 13 -2 6
-6 28 -9 48 -8 56 -20 80 -65 130 -68 77 -157 101 -247 68z m166 -129 c40 -40
43 -46 43 -95 0 -46 -3 -52 -33 -83 -40 -43 -78 -60 -124 -57 -61 5 -112 64
-121 140 -3 21 36 84 62 103 37 26 51 30 96 31 30 1 44 -6 77 -39z"/>
<path d="M6420 7060 c-101 -27 -184 -129 -189 -232 -8 -152 169 -288 311 -240
62 22 67 37 22 76 -31 27 -43 32 -58 24 -29 -16 -79 -1 -124 37 -65 56 -68
128 -7 190 37 39 70 50 119 41 60 -11 118 -82 114 -138 -1 -28 4 -41 33 -66
19 -17 37 -32 40 -32 12 0 32 61 34 102 4 87 -102 218 -189 234 -59 11 -78 11
-106 4z"/>
<path d="M2210 6700 c-76 -22 -158 -100 -179 -171 -15 -51 -11 -126 8 -164 35
-67 129 -135 197 -142 185 -19 340 216 234 354 l-17 22 -35 -39 c-20 -21 -33
-41 -31 -44 17 -16 13 -79 -7 -111 -37 -60 -74 -79 -146 -76 -36 1 -103 60
-105 92 -1 10 -2 25 -2 32 -6 74 77 160 144 150 20 -2 33 4 53 28 14 17 26 36
26 44 0 22 -92 39 -140 25z"/>
<path d="M6793 6675 c-201 -60 -256 -262 -111 -408 98 -97 226 -95 330 7 70
68 89 145 58 229 -26 68 -78 129 -133 156 -55 27 -93 31 -144 16z m101 -110
c40 -19 86 -89 86 -132 0 -67 -52 -123 -123 -130 -50 -5 -80 10 -119 58 -57
71 -39 158 42 200 42 23 72 24 114 4z"/>
<path d="M7112 6230 c-59 -36 -68 -90 -32 -200 53 -165 51 -149 23 -167 -24
-16 -26 -16 -57 18 -34 36 -68 112 -63 141 2 9 11 26 21 36 16 19 16 21 -5 58
-11 22 -22 40 -24 42 -1 1 -15 -3 -30 -10 -40 -18 -64 -73 -59 -132 9 -98 106
-251 167 -263 18 -4 35 -6 38 -6 4 1 18 4 32 7 61 11 94 61 89 131 -1 17 -16
72 -32 123 -36 111 -36 118 -9 132 17 10 25 6 54 -26 49 -53 61 -119 28 -156
-13 -14 -12 -21 7 -57 23 -47 38 -51 67 -18 66 72 60 162 -19 278 -17 26 -45
54 -60 64 -42 24 -100 26 -136 5z"/>
<path d="M1706 6048 c-10 -24 -49 -112 -87 -197 -38 -85 -69 -159 -69 -165 0
-6 18 -18 39 -27 l39 -17 39 86 c21 48 50 111 64 141 l25 55 29 -89 c33 -105
30 -92 40 -130 36 -137 52 -170 91 -192 21 -13 42 -23 45 -23 9 0 195 409 187
414 -2 1 -20 9 -41 19 l-38 17 -43 -92 c-23 -51 -51 -112 -61 -135 -11 -24
-22 -43 -26 -43 -6 0 -23 49 -20 57 1 2 -6 20 -14 40 -12 34 -78 240 -80 253
-3 19 -26 40 -59 54 -21 9 -39 16 -40 16 -1 0 -10 -19 -20 -42z"/>
<path d="M7418 5828 c-26 -9 -32 -27 -17 -53 15 -24 40 -117 35 -123 -4 -3
-79 -32 -167 -63 -89 -32 -164 -60 -167 -63 -7 -8 16 -84 29 -91 5 -4 16 -1
24 5 8 7 15 9 15 5 0 -4 7 -2 15 5 8 7 15 9 15 5 0 -4 6 -3 13 2 6 6 50 22 97
38 47 15 92 30 100 33 8 3 17 6 20 7 3 1 13 5 24 10 22 10 29 1 57 -87 21 -64
24 -67 48 -61 44 10 63 24 58 41 -3 10 -35 102 -71 206 -36 103 -66 190 -66
192 0 7 -34 3 -62 -8z"/>
<path d="M1939 5466 c-2 -3 -35 -7 -74 -10 -38 -4 -83 -8 -100 -10 -16 -2 -61
-7 -98 -10 -37 -4 -77 -9 -88 -11 -11 -2 -41 -5 -65 -6 -44 -3 -44 -3 -59 -53
-9 -28 -18 -67 -21 -86 l-5 -35 120 -80 c67 -44 129 -85 139 -90 9 -6 37 -24
61 -40 75 -51 85 -56 92 -42 4 7 9 28 13 48 6 33 3 39 -29 63 -30 23 -33 30
-25 47 6 10 8 19 4 19 -3 0 -1 7 6 15 7 8 10 15 7 15 -3 0 3 32 13 70 10 39
15 70 12 71 -17 1 36 18 60 18 22 1 29 7 34 29 3 15 9 37 14 49 8 19 0 40 -11
29z m-194 -152 c-3 -20 -7 -39 -10 -43 -4 -8 -16 -59 -17 -78 -1 -7 -3 -13 -5
-13 -2 0 -39 24 -81 53 -42 28 -82 54 -89 57 -18 8 0 30 28 35 13 2 56 6 94
10 39 4 72 9 74 11 10 10 12 2 6 -32z"/>
<path d="M7168 5345 c-3 -3 -1 -25 5 -50 10 -41 13 -45 50 -52 43 -9 44 -11
72 -166 11 -67 10 -71 -22 -91 -29 -19 -32 -25 -26 -56 13 -74 3 -76 216 51
109 66 203 119 209 119 6 0 7 17 4 43 -14 94 -26 137 -39 138 -7 0 -21 2 -32
4 -11 3 -40 7 -65 10 -42 5 -60 8 -135 20 -16 3 -50 8 -75 11 -25 3 -63 9 -85
14 -46 11 -69 12 -77 5z m322 -141 c25 -4 56 -11 69 -16 24 -8 24 -9 5 -26
-11 -9 -39 -28 -64 -41 -25 -14 -47 -27 -50 -30 -8 -9 -52 -33 -54 -29 -3 3
-21 88 -31 137 -4 22 -2 23 38 17 23 -3 62 -9 87 -12z"/>
<path d="M1484 5000 c-80 -36 -127 -117 -128 -224 -1 -131 93 -226 227 -227
86 -1 131 15 179 65 98 100 81 297 -31 367 -25 16 -50 28 -55 26 -5 -2 -11
-25 -13 -51 -3 -42 0 -50 27 -76 30 -28 34 -42 31 -115 -3 -73 -63 -125 -135
-118 -84 9 -130 58 -125 136 4 70 22 105 62 120 9 3 17 12 18 19 0 7 2 30 4
50 4 46 -10 52 -61 28z"/>
<path d="M7385 4551 c-54 -25 -84 -55 -108 -110 -56 -124 -5 -282 104 -320 25
-8 29 -7 30 7 1 9 3 32 5 50 3 27 -2 38 -24 57 -16 13 -30 32 -31 42 -12 117
29 182 119 189 103 7 169 -98 125 -201 -8 -20 -25 -39 -38 -44 -28 -11 -32
-20 -36 -79 -3 -42 -2 -43 26 -36 78 17 130 70 155 159 16 55 15 142 -1 158
-6 6 -11 19 -11 28 0 21 -72 87 -114 104 -50 20 -154 18 -201 -4z"/>
<path d="M1720 4199 c-52 -33 -144 -89 -203 -125 l-109 -66 7 -37 c18 -97 28
-131 38 -132 7 -1 21 -3 32 -4 11 -2 40 -5 65 -8 49 -7 179 -25 220 -32 20 -3
96 -13 129 -17 23 -2 29 5 25 27 -8 45 -23 75 -39 76 -8 1 -19 3 -25 4 -5 1
-18 3 -27 4 -9 0 -14 4 -11 7 4 3 2 20 -3 37 -5 18 -12 48 -15 67 -3 19 -10
53 -16 75 -9 34 -8 41 9 52 53 35 53 35 42 86 -6 26 -14 47 -17 46 -4 0 -50
-27 -102 -60z m-15 -171 c4 -18 8 -40 10 -48 1 -8 5 -30 9 -48 7 -31 6 -33
-16 -28 -21 5 -117 17 -161 22 -44 4 -39 22 14 57 82 52 123 77 130 77 4 0 10
-15 14 -32z"/>
<path d="M7239 4138 c-18 -60 -22 -108 -8 -108 7 0 20 -7 30 -16 15 -14 16
-20 3 -72 -21 -84 -23 -94 -30 -130 -6 -30 -34 -58 -47 -46 -10 10 -45 -6 -52
-24 -4 -9 -9 -31 -12 -48 -4 -31 -4 -31 34 -28 21 2 72 6 113 9 41 3 91 7 110
10 31 4 149 14 205 19 16 1 24 16 42 80 13 43 21 81 19 85 -2 3 -64 47 -138
96 -73 50 -135 92 -138 95 -21 21 -129 85 -131 78z m221 -261 c41 -28 77 -52
79 -54 12 -10 -23 -26 -61 -29 -24 -2 -65 -5 -91 -9 -27 -3 -52 -3 -57 0 -5 3
0 34 10 70 10 36 16 65 14 65 -3 0 -2 5 1 10 7 12 5 13 105 -53z"/>
<path d="M1530 3723 c-8 -3 -25 -10 -37 -14 l-22 -8 30 -83 c17 -46 35 -96 41
-113 5 -16 16 -43 23 -60 6 -16 22 -58 35 -93 12 -34 26 -64 30 -67 10 -6 80
17 80 26 0 5 -11 38 -25 75 -14 36 -25 72 -25 78 0 10 268 116 295 116 6 1 18
6 27 14 15 11 15 17 3 51 -7 22 -17 41 -22 42 -8 3 -130 -38 -193 -64 -8 -3
-21 -7 -29 -9 -7 -1 -36 -12 -63 -24 -28 -12 -54 -18 -58 -13 -4 4 -20 41 -35
81 -14 39 -30 72 -33 71 -4 0 -14 -3 -22 -6z"/>
<path d="M7085 3597 c-10 -23 -41 -89 -68 -147 -66 -141 -97 -211 -97 -220 0
-5 15 -14 33 -21 17 -7 35 -14 39 -17 5 -2 12 7 17 20 23 60 112 238 119 238
7 0 26 -59 84 -255 33 -115 38 -123 79 -143 45 -22 45 -22 82 58 14 30 42 91
62 135 21 44 48 104 62 133 13 29 21 57 18 62 -3 5 -19 15 -35 23 -41 21 -39
24 -134 -185 -32 -70 -42 -77 -51 -36 -4 18 -14 53 -22 78 -8 25 -17 54 -19
65 -11 57 -63 206 -78 220 -9 9 -16 13 -16 9 0 -3 -6 -2 -12 3 -33 25 -45 21
-63 -20z"/>
<path d="M1943 3361 c-66 -42 -71 -95 -19 -245 18 -54 31 -107 29 -117 -11
-41 -71 -12 -103 51 -24 47 -26 83 -5 104 19 19 19 27 -2 71 -10 20 -24 35
-34 35 -25 0 -67 -55 -75 -97 -18 -97 75 -259 161 -280 29 -7 37 -7 70 -4 8 0
30 15 50 32 46 41 46 81 0 214 -42 120 -43 133 -9 141 32 8 62 -18 94 -82 27
-56 29 -88 5 -115 -17 -18 -18 -21 -2 -55 9 -19 24 -37 32 -41 18 -6 65 33 65
54 0 7 4 13 8 13 19 0 4 153 -17 170 -3 3 -15 23 -26 44 -11 22 -37 57 -57 79
-31 34 -44 40 -85 44 -36 3 -56 -1 -80 -16z"/>
<path d="M2225 2930 c-75 -17 -154 -83 -185 -153 -63 -141 70 -330 231 -329
87 1 190 75 225 161 18 47 15 141 -7 167 -6 8 -9 14 -5 14 8 0 -21 35 -63 78
-52 53 -131 78 -196 62z m106 -123 c19 -12 44 -42 57 -64 30 -55 22 -103 -25
-149 -79 -77 -189 -41 -229 74 -10 30 -10 43 2 70 35 86 124 117 195 69z"/>
<path d="M6736 2903 c-28 -8 -87 -47 -113 -74 -64 -71 -88 -177 -55 -245 12
-27 42 -53 46 -42 1 2 14 17 30 35 25 28 27 35 18 61 -22 63 59 164 131 164
99 0 167 -105 123 -190 -8 -15 -25 -38 -39 -50 -28 -26 -91 -44 -104 -31 -6 6
-23 -7 -42 -31 -31 -39 -32 -42 -15 -55 43 -31 125 -28 184 8 40 24 100 83
100 97 0 6 3 10 8 10 14 0 29 72 26 125 -3 63 -22 103 -67 146 -63 61 -161 91
-231 72z"/>
<path d="M2563 2540 c-22 -10 -43 -22 -47 -28 -3 -6 11 -24 32 -40 33 -26 44
-30 79 -25 73 10 146 -53 152 -129 7 -98 -96 -170 -184 -127 -62 31 -98 84
-89 132 3 20 -4 32 -33 56 -33 27 -39 29 -52 16 -9 -8 -16 -38 -18 -69 -2 -45
3 -66 27 -112 43 -80 105 -127 189 -140 121 -19 255 95 265 227 12 160 -180
302 -321 239z"/>
<path d="M6360 2528 c-32 -9 -69 -31 -113 -68 -68 -56 -94 -180 -54 -258 28
-54 79 -108 127 -132 79 -40 198 -11 272 67 74 78 87 193 30 275 -70 102 -165
144 -262 116z m144 -126 c31 -28 56 -93 48 -127 -13 -58 -75 -112 -135 -120
-68 -9 -148 72 -140 141 5 49 16 68 58 100 60 46 121 48 169 6z"/>
<path d="M5930 2232 c-76 -33 -103 -48 -141 -80 -67 -57 -80 -102 -50 -166 11
-22 30 -47 43 -55 31 -19 122 -16 165 7 10 6 20 10 23 10 3 0 19 6 35 12 17 7
46 14 67 17 29 4 38 2 47 -15 9 -17 7 -25 -11 -44 -54 -55 -123 -73 -165 -43
-21 14 -26 14 -69 -8 l-47 -24 42 -41 c41 -40 44 -41 104 -39 78 3 147 35 203
93 51 52 63 100 39 155 -33 73 -105 82 -242 29 -104 -40 -132 -39 -139 7 -5
31 106 103 159 103 13 0 32 -8 43 -19 19 -18 20 -18 59 2 22 12 42 22 43 24
10 5 -35 63 -57 74 -38 18 -111 19 -151 1z"/>
<path d="M3186 2158 c-10 -21 -16 -41 -15 -43 4 -3 150 -71 217 -100 23 -10
42 -22 42 -26 0 -8 -50 -28 -88 -35 -13 -3 -44 -12 -70 -21 -26 -8 -51 -16
-57 -18 -5 -1 -44 -12 -86 -24 -72 -22 -77 -25 -98 -67 l-21 -45 77 -35 c43
-20 101 -46 128 -59 28 -13 85 -39 128 -59 l77 -35 21 41 c11 22 19 41 17 43
-4 4 -166 80 -225 106 -24 10 -43 20 -43 23 0 2 39 16 88 31 48 14 98 30 112
34 14 5 45 14 70 21 99 27 114 36 137 79 l22 41 -82 39 c-208 97 -294 136
-318 144 -11 4 -21 -6 -33 -35z"/>
<path d="M5470 2023 c-8 -3 -25 -10 -37 -14 l-22 -8 45 -128 c83 -233 78 -214
63 -224 -8 -4 -44 -18 -82 -31 -59 -19 -66 -24 -61 -42 14 -46 24 -66 31 -66
5 0 95 32 202 70 106 39 199 70 206 70 11 0 11 8 -2 45 -8 25 -19 45 -23 45
-5 0 -40 -11 -78 -25 -38 -14 -72 -25 -75 -25 -3 0 -15 26 -27 58 -11 31 -24
66 -29 77 -5 11 -15 40 -22 65 -7 25 -16 50 -20 55 -4 6 -11 26 -16 45 -9 35
-24 44 -53 33z"/>
<path d="M3644 1989 c-3 -5 -3 -26 0 -46 3 -21 8 -67 11 -103 3 -36 8 -81 10
-100 8 -58 17 -163 19 -197 1 -31 4 -32 66 -48 36 -9 74 -18 85 -20 16 -3 44
33 150 191 72 108 130 201 130 207 0 7 -6 13 -12 13 -7 1 -14 2 -15 4 -2 1
-16 4 -33 6 -24 4 -34 0 -55 -26 l-26 -32 -109 28 c-61 15 -111 28 -112 28 0
1 -4 19 -7 40 -4 22 -8 41 -9 42 -9 9 -88 20 -93 13z m159 -204 c33 -4 117
-27 117 -32 0 -6 -93 -146 -107 -160 -23 -25 -31 -12 -38 60 -3 39 -8 89 -10
110 -3 23 0 35 6 31 6 -3 20 -7 32 -9z"/>
<path d="M5260 1952 c-30 -5 -40 -18 -40 -54 0 -32 -5 -36 -56 -44 -22 -3 -66
-12 -99 -20 -81 -19 -80 -19 -104 22 -12 19 -25 33 -30 30 -5 -3 -26 -8 -47
-12 -22 -3 -40 -7 -41 -8 -2 -1 31 -58 72 -126 41 -68 75 -124 75 -126 0 -2
12 -20 26 -41 14 -21 32 -51 40 -68 32 -65 32 -65 114 -48 41 8 80 19 85 24 6
4 12 23 13 41 1 19 5 45 7 58 3 14 8 45 11 70 7 56 11 85 18 130 7 40 15 100
21 147 4 35 5 35 -65 25z m-66 -239 c-11 -92 -13 -108 -15 -113 -2 -8 -6 -24
-7 -37 -3 -23 -27 -13 -44 17 -10 17 -17 31 -17 33 1 1 -15 27 -35 57 -20 30
-32 58 -28 62 4 4 28 10 52 13 24 3 46 8 49 10 2 3 15 5 27 5 22 0 23 -3 18
-47z"/>
<path d="M4211 1849 c-25 -11 -57 -34 -72 -51 -33 -37 -54 -88 -36 -88 7 -1
29 -3 50 -6 32 -5 41 -2 57 19 23 29 62 44 105 41 17 -1 38 -2 49 -3 10 -1 33
-16 52 -35 30 -30 34 -40 34 -85 0 -59 -12 -89 -47 -115 -29 -21 -103 -28
-143 -14 -31 12 -71 48 -64 59 5 9 -17 15 -73 22 -29 3 -33 1 -33 -19 0 -60
71 -145 133 -159 18 -4 39 -9 47 -12 67 -18 161 6 214 55 55 52 83 163 62 252
-10 43 -60 104 -106 130 -61 33 -166 38 -229 9z"/>
</g>
</svg>
